<svg xmlns="http://www.w3.org/2000/svg" version="1.1" xmlns:xlink="http://www.w3.org/1999/xlink" xmlns:svgjs="http://svgjs.dev/svgjs" viewBox="0 0 800 800" opacity="1"><defs><linearGradient x1="50%" y1="0%" x2="50%" y2="100%" id="cccoil-grad"><stop stop-color="hsl(185, 53%, 55%)" stop-opacity="1" offset="0%"></stop><stop stop-color="hsl(0, 73%, 55%)" stop-opacity="1" offset="100%"></stop></linearGradient></defs><g stroke="url(#cccoil-grad)" fill="none" stroke-linecap="round"><circle r="478.5" cx="400" cy="400" stroke-width="11" stroke-dasharray="2706 3007" opacity="0.45"></circle><circle r="464" cx="400" cy="400" stroke-width="11" stroke-dasharray="2542 2915" opacity="0.34"></circle><circle r="449.5" cx="400" cy="400" stroke-width="11" stroke-dasharray="2383 2824" opacity="0.95"></circle><circle r="435" cx="400" cy="400" stroke-width="11" stroke-dasharray="2229 2733" opacity="0.53"></circle><circle r="420.5" cx="400" cy="400" stroke-width="11" stroke-dasharray="2081 2642" opacity="0.74"></circle><circle r="406" cx="400" cy="400" stroke-width="11" stroke-dasharray="1937 2551" opacity="0.53"></circle><circle r="391.5" cx="400" cy="400" stroke-width="11" stroke-dasharray="1799 2460" opacity="0.63"></circle><circle r="377" cx="400" cy="400" stroke-width="11" stroke-dasharray="1666 2369" opacity="0.17"></circle><circle r="362.5" cx="400" cy="400" stroke-width="11" stroke-dasharray="1537 2278" opacity="0.52"></circle><circle r="348" cx="400" cy="400" stroke-width="11" stroke-dasharray="1414 2187" opacity="0.62"></circle><circle r="333.5" cx="400" cy="400" stroke-width="11" stroke-dasharray="1297 2095" opacity="0.72"></circle><circle r="319" cx="400" cy="400" stroke-width="11" stroke-dasharray="1184 2004" opacity="0.56"></circle><circle r="304.5" cx="400" cy="400" stroke-width="11" stroke-dasharray="1076 1913" opacity="0.61"></circle><circle r="290" cx="400" cy="400" stroke-width="11" stroke-dasharray="974 1822" opacity="0.69"></circle><circle r="275.5" cx="400" cy="400" stroke-width="11" stroke-dasharray="876 1731" opacity="0.76"></circle><circle r="261" cx="400" cy="400" stroke-width="11" stroke-dasharray="784 1640" opacity="0.63"></circle><circle r="246.5" cx="400" cy="400" stroke-width="11" stroke-dasharray="697 1549" opacity="0.83"></circle><circle r="232" cx="400" cy="400" stroke-width="11" stroke-dasharray="615 1458" opacity="0.31"></circle><circle r="217.5" cx="400" cy="400" stroke-width="11" stroke-dasharray="538 1367" opacity="0.54"></circle><circle r="203" cx="400" cy="400" stroke-width="11" stroke-dasharray="466 1275" opacity="0.98"></circle><circle r="188.5" cx="400" cy="400" stroke-width="11" stroke-dasharray="400 1184" opacity="0.67"></circle><circle r="174" cx="400" cy="400" stroke-width="11" stroke-dasharray="338 1093" opacity="0.23"></circle><circle r="159.5" cx="400" cy="400" stroke-width="11" stroke-dasharray="282 1002" opacity="0.75"></circle><circle r="145" cx="400" cy="400" stroke-width="11" stroke-dasharray="231 911" opacity="0.75"></circle><circle r="130.5" cx="400" cy="400" stroke-width="11" stroke-dasharray="184 820" opacity="0.50"></circle><circle r="116" cx="400" cy="400" stroke-width="11" stroke-dasharray="143 729" opacity="0.84"></circle><circle r="101.5" cx="400" cy="400" stroke-width="11" stroke-dasharray="108 638" opacity="0.85"></circle><circle r="87" cx="400" cy="400" stroke-width="11" stroke-dasharray="77 547" opacity="0.48"></circle><circle r="72.5" cx="400" cy="400" stroke-width="11" stroke-dasharray="51 456" opacity="0.22"></circle><circle r="58" cx="400" cy="400" stroke-width="11" stroke-dasharray="31 364" opacity="0.21"></circle><circle r="43.5" cx="400" cy="400" stroke-width="11" stroke-dasharray="15 273" opacity="0.56"></circle><circle r="29" cx="400" cy="400" stroke-width="11" stroke-dasharray="5 182" opacity="0.49"></circle><circle r="14.5" cx="400" cy="400" stroke-width="11" stroke-dasharray="0 91" opacity="0.22"></circle></g></svg>